<?xml version="1.0" encoding="UTF-8" standalone="no"?>
<svg width="161px" height="24px" viewBox="0 0 161 24" version="1.1" xmlns="http://www.w3.org/2000/svg" xmlns:xlink="http://www.w3.org/1999/xlink">
    <!-- Generator: Sketch 41.2 (35397) - http://www.bohemiancoding.com/sketch -->
    <title>Group 3 Copy</title>
    <desc>Created with Sketch.</desc>
    <defs></defs>
    <g id="Page-1" stroke="none" stroke-width="1" fill="none" fill-rule="evenodd">
        <g id="call-for-speakers" transform="translate(-40.000000, -28.000000)" fill="#FFFFFF">
            <g id="navi" transform="translate(40.000000, 20.000000)">
                <g id="logo" transform="translate(0.000000, 8.000000)">
                    <g id="Group-3-Copy" transform="translate(0.000000, 0.826087)">
                        <path d="M128.144157,19.9114066 C129.783658,19.9114066 131.20049,19.4759123 132.394695,18.6049105 C133.5889,17.7339087 134.408638,16.4578089 134.853935,14.7765729 L138.011478,15.4450128 C137.464977,17.7946921 136.291031,19.6379473 134.489603,20.9748338 C132.688176,22.3117202 130.573048,22.9801535 128.144157,22.9801535 C125.189006,22.9801535 122.684249,21.9572481 120.629812,19.9114066 C118.575375,17.8655652 117.548172,15.3538768 117.548172,12.376266 C117.548172,9.41891104 118.575375,6.91228649 120.629812,4.85631714 C122.684249,2.80034778 125.189006,1.77237852 128.144157,1.77237852 C130.552807,1.77237852 132.657815,2.43068395 134.459242,3.74731458 C136.26067,5.0639452 137.444737,6.83630599 138.011478,9.06445013 L134.853935,9.97595908 C134.408638,8.29472305 133.5889,7.01862328 132.394695,6.14762148 C131.20049,5.27661969 129.783658,4.84112532 128.144157,4.84112532 C126.079599,4.84112532 124.34398,5.5652613 122.937247,7.01355499 C121.530514,8.46184867 120.827158,10.2494011 120.827158,12.376266 C120.827158,14.5031308 121.530514,16.2906833 122.937247,17.738977 C124.34398,19.1872707 126.079599,19.9114066 128.144157,19.9114066 L128.144157,19.9114066 Z" id="Path" opacity="0.5"></path>
                        <polygon id="Path" opacity="0.5" points="160.313311 2.1943734 160.313311 22.5514066 157.550461 22.5514066 145.254261 7.9368798 145.254261 22.5514066 142.005635 22.5514066 142.005635 2.1943734 144.768485 2.1943734 157.034324 17.0519693 157.034324 2.1943734"></polygon>
                        <path d="M50.5070226,17.93 C53.1176889,17.93 54.858107,16.6155929 55.7283291,13.9867391 L60.7048869,15.2469565 C60.1338037,17.5505912 58.9032737,19.3934713 57.0132601,20.7756522 C55.1232464,22.157833 52.9545223,22.848913 50.5070226,22.848913 C47.4612452,22.848913 44.8846106,21.8461694 42.7770415,19.8406522 C40.6694723,17.8351349 39.6157035,15.260523 39.6157035,12.1167391 C39.6157035,8.9729553 40.6694723,6.39156807 42.7770415,4.3725 C44.8846106,2.35343193 47.4612452,1.34391304 50.5070226,1.34391304 C52.9001334,1.34391304 55.0280665,2.02821779 56.8908857,3.39684783 C58.7537049,4.76547786 60.0250259,6.57448151 60.7048869,8.82391304 L55.5243719,10.2873913 C54.8445108,7.60433441 53.1720778,6.26282609 50.5070226,6.26282609 C48.8209673,6.26282609 47.4544671,6.80484965 46.4074812,7.88891304 C45.3604952,8.97297643 44.8370101,10.3822377 44.8370101,12.1167391 C44.8370101,13.8512406 45.3604952,15.2537265 46.4074812,16.3242391 C47.4544671,17.3947517 48.8209673,17.93 50.5070226,17.93 Z M16.3342119,2.02895141 L16.3342119,15.0635294 C16.3342119,17.3524411 15.5802549,19.2210158 14.0723182,20.6693095 C12.5643816,22.1176031 10.5858769,22.8417391 8.13674495,22.8417391 C5.8697798,22.8417391 4.02283813,22.2239448 2.59586453,20.9883376 C1.16889093,19.7527304 0.303611404,18.0917751 0,16.005422 L4.85775818,15.0331458 C4.95896198,16.0864503 5.29292952,16.9068001 5.8596708,17.4942199 C6.42641209,18.0816398 7.18542922,18.3753453 8.13674495,18.3753453 C9.08806068,18.3753453 9.85719804,18.0664481 10.4441801,17.4486445 C11.0311621,16.8308409 11.3246488,16.0358105 11.3246488,15.0635294 L11.3246488,2.02895141 L16.3342119,2.02895141 Z M28.201985,1.57319693 C30.4284686,1.57319693 32.2905906,2.09477739 33.7884069,3.13795396 C35.2862231,4.18113054 36.2274044,5.62433861 36.6119788,7.46762148 L31.6934987,8.47028133 C31.5113318,7.55876782 31.0862822,6.85488739 30.4183372,6.35861893 C29.7503921,5.86235046 28.9913749,5.61421995 28.141263,5.61421995 C27.3316326,5.61421995 26.6738178,5.81171158 26.1677987,6.20670077 C25.6617797,6.60168995 25.408774,7.09288709 25.408774,7.68030691 C25.408774,8.57156456 25.9552664,9.13872001 27.0482674,9.38179028 L31.2684448,10.3236829 C34.9927447,11.154173 36.8548667,13.1290893 36.8548667,16.248491 C36.8548667,18.3348442 36.0553687,19.9552883 34.4563486,21.1098721 C32.8573286,22.2644559 30.8636436,22.8417391 28.4752339,22.8417391 C26.1070649,22.8417391 24.0981996,22.2999031 22.4485776,21.2162148 C20.7989557,20.1325266 19.8425941,18.618424 19.5794642,16.6738619 L24.7408323,15.671202 C25.2266105,17.6765318 26.5624807,18.6791816 28.7484828,18.6791816 C29.6795577,18.6791816 30.4132743,18.4867538 30.9496545,18.1018926 C31.4860346,17.7170313 31.7542206,17.2106425 31.7542206,16.582711 C31.7542206,16.0965705 31.6175976,15.711715 31.3443473,15.428133 C31.071097,15.144551 30.580266,14.9318677 29.8718394,14.7900767 L25.6213009,13.8785678 C21.9779641,13.0480777 20.156323,11.0832892 20.156323,7.98414322 C20.156323,6.01932521 20.8950997,4.45964772 22.3726752,3.30506394 C23.8502507,2.15048016 25.7933345,1.57319693 28.201985,1.57319693 Z M71.9601135,6.73841432 C74.2878009,6.73841432 76.2612455,7.48786974 77.8805063,8.98680307 C79.4997671,10.4857364 80.3093854,12.4100138 80.3093854,14.7596931 C80.3093854,17.1296282 79.4997671,19.0640334 77.8805063,20.5629668 C76.2612455,22.0619001 74.2878009,22.8113555 71.9601135,22.8113555 C69.5919445,22.8113555 67.5931994,22.0619001 65.9638182,20.5629668 C64.334437,19.0640334 63.5197587,17.1296282 63.5197587,14.7596931 C63.5197587,12.4100138 64.334437,10.4857364 65.9638182,8.98680307 C67.5931994,7.48786974 69.5919445,6.73841432 71.9601135,6.73841432 Z M71.9601135,18.7095652 C72.9519107,18.7095652 73.8121302,18.3399014 74.5407975,17.6005627 C75.2694649,16.8612239 75.6337931,15.9142769 75.6337931,14.7596931 C75.6337931,13.6051093 75.2644048,12.6581623 74.525617,11.9188235 C73.7868293,11.1794848 72.93167,10.809821 71.9601135,10.809821 C70.9480755,10.809821 70.0676156,11.1794848 69.3187075,11.9188235 C68.5697994,12.6581623 68.1953509,13.6051093 68.1953509,14.7596931 C68.1953509,15.9142769 68.5647392,16.8612239 69.303527,17.6005627 C70.0423147,18.3399014 70.9278347,18.7095652 71.9601135,18.7095652 Z M92.7843782,6.67764706 C94.5655651,6.67764706 95.9975775,7.25999418 97.0804581,8.42470588 C98.1633388,9.58941759 98.704771,11.1237756 98.704771,13.0278261 L98.704771,22.3859847 L93.8773738,22.3859847 L93.8773738,14.0608696 C93.8773738,13.1696119 93.6344884,12.4454759 93.1487101,11.8884399 C92.6629319,11.3314039 92.0354777,11.05289 91.2663288,11.05289 C90.2745316,11.05289 89.5003341,11.4022983 88.9437132,12.1011253 C88.3870923,12.7999523 88.108786,13.8684327 88.108786,15.3065985 L88.108786,22.3859847 L83.2510278,22.3859847 L83.2510278,7.13340153 L88.108786,7.13340153 L88.108786,8.59181586 C89.3232316,7.31569694 90.8817468,6.67764706 92.7843782,6.67764706 Z M108.143665,7.13340153 L112.333481,7.13340153 L112.333481,10.9921228 L108.143665,10.9921228 L108.143665,22.3859847 L103.316268,22.3859847 L103.316268,10.9921228 L101.130277,10.9921228 L101.130277,7.13340153 L103.316268,7.13340153 L103.316268,5.9484399 C103.316268,4.16592459 103.877941,2.74297207 105.001303,1.67953964 C106.124665,0.616107215 107.607278,0.084398977 109.449188,0.084398977 C110.481466,0.084398977 111.483369,0.297082272 112.454925,0.722455243 L111.422652,4.49002558 C110.936874,4.32797873 110.501704,4.24695652 110.117129,4.24695652 C109.530147,4.24695652 109.054497,4.41912871 108.690163,4.76347826 C108.325829,5.10782781 108.143665,5.5737055 108.143665,6.16112532 L108.143665,7.13340153 Z" id="Combined-Shape"></path>
                    </g>
                </g>
            </g>
        </g>
    </g>
</svg>