<?xml version="1.0" encoding="UTF-8"?>
<svg width="180px" height="208px" viewBox="0 0 180 208" version="1.1" xmlns="http://www.w3.org/2000/svg" xmlns:xlink="http://www.w3.org/1999/xlink">
    <!-- Generator: Sketch 42 (36781) - http://www.bohemiancoding.com/sketch -->
    <title>bronze</title>
    <desc>Created with Sketch.</desc>
    <defs>
        <path d="M115.75808,44.4839516 C108.327773,40.3532276 99.770368,38 90.6624874,38 C62.1300835,38 39,61.0943635 39,89.5827045 C39,118.071046 62.1300835,141.165409 90.6624874,141.165409 C119.194891,141.165409 142.324975,118.071046 142.324975,89.5827045 C142.324975,85.9479758 141.948456,82.4010521 141.232237,78.978695 C137.286288,83.0010405 131.785523,85.4969457 125.700907,85.4969457 C113.694698,85.4969457 103.961742,75.7790205 103.961742,63.7913523 C103.961742,55.3809337 108.752569,48.0877449 115.75808,44.4839516 Z" id="path-1"></path>
    </defs>
    <g id="Page-3" stroke="none" stroke-width="1" fill="none" fill-rule="evenodd">
        <g id="call-for-sponsors" transform="translate(-1064.000000, -1494.000000)">
            <g id="sponsorship-level" transform="translate(191.000000, 1390.000000)">
                <g id="bronze" transform="translate(873.000000, 104.000000)">
                    <g id="Group" transform="translate(92.500000, 172.500000) scale(1, -1) translate(-92.500000, -172.500000) translate(45.000000, 137.000000)" fill="#303030" opacity="0.300000012">
                        <path d="M55.7687838,70.3414634 L1.0658141e-14,70.3414634 L1.0658141e-14,0.290430053 C1.61045607,0.0982782322 3.24269291,0 4.89320388,0 C33.118708,0 56,28.7411351 56,64.195122 C56,66.2683248 55.9217591,68.3185735 55.7687838,70.3414634 Z" id="Combined-Shape"></path>
                        <path d="M94.7687838,70.3414634 L39,70.3414634 L39,0.290430053 C40.6104561,0.0982782322 42.2426929,1.8189894e-12 43.8932039,1.8189894e-12 C72.118708,1.8189894e-12 95,28.7411351 95,64.195122 C95,66.2683248 94.9217591,68.3185735 94.7687838,70.3414634 Z" id="Combined-Shape" transform="translate(67.000000, 35.170732) scale(-1, 1) translate(-67.000000, -35.170732) "></path>
                    </g>
                    <ellipse id="Mask" fill="#FFFFFF" cx="90" cy="90" rx="90" ry="90"></ellipse>
                    <mask id="mask-2" fill="white">
                        <use xlink:href="#path-1"></use>
                    </mask>
                    <use id="Combined-Shape" fill="#FFF029" xlink:href="#path-1"></use>
                    <path d="M66.365773,144.740448 C56.3370568,144.740448 48.207176,136.623122 48.207176,126.609893 C48.207176,116.596665 56.3370568,108.479339 66.365773,108.479339 C76.3944893,108.479339 84.5243701,116.596665 84.5243701,126.609893 C84.5243701,136.623122 76.3944893,144.740448 66.365773,144.740448 Z M81.1995565,63.5359923 C77.1033203,63.5359923 73.7826648,60.2204649 73.7826648,56.1305546 C73.7826648,52.0406442 77.1033203,48.7251168 81.1995565,48.7251168 C85.2957927,48.7251168 88.6164483,52.0406442 88.6164483,56.1305546 C88.6164483,60.2204649 85.2957927,63.5359923 81.1995565,63.5359923 Z" id="Combined-Shape" fill="#E7D100" mask="url(#mask-2)"></path>
                </g>
            </g>
        </g>
    </g>
</svg>