<?xml version="1.0" encoding="UTF-8"?>
<svg width="127px" height="100px" viewBox="0 0 127 100" version="1.1" xmlns="http://www.w3.org/2000/svg" xmlns:xlink="http://www.w3.org/1999/xlink">
    <!-- Generator: Sketch 42 (36781) - http://www.bohemiancoding.com/sketch -->
    <title>dinner</title>
    <desc>Created with Sketch.</desc>
    <defs></defs>
    <g id="Page-3" stroke="none" stroke-width="1" fill="none" fill-rule="evenodd">
        <g id="call-for-speakers" transform="translate(-508.000000, -1624.000000)">
            <g id="perks" transform="translate(191.000000, 1500.000000)">
                <g id="icons" transform="translate(1.000000, 123.000000)">
                    <g id="dinner" transform="translate(316.000000, 0.000000)">
                        <g>
                            <rect id="Rectangle-31" fill="#4921CC" style="mix-blend-mode: darken;" x="0" y="13.1212121" width="127" height="87.8787879"></rect>
                            <ellipse id="Mask" fill="#FFFFFF" cx="50.2559491" cy="40.0183323" rx="38.9315476" ry="39.0151515"></ellipse>
                            <ellipse id="Oval-16" fill="#FFF029" cx="50.6488095" cy="22.969697" rx="16.6309524" ry="16.6666667"></ellipse>
                            <rect id="Rectangle-3" fill="#4921CC" x="62.7440476" y="29.030303" width="3.47080745" height="3.47826087" rx="1"></rect>
                            <rect id="Rectangle-3" fill="#4921CC" x="49.5821918" y="37.5217391" width="3.47080745" height="3.47826087" rx="1"></rect>
                            <rect id="Rectangle-3" fill="#4921CC" x="57.5248695" y="46.4216074" width="3.47080745" height="3.47826087" rx="1"></rect>
                            <path d="M22.7278742,40.2846432 C23.8469799,38.3752651 25.6635682,38.3789496 26.7805143,40.2846432 L43.2744925,68.4260797 C44.3935982,70.3354578 43.508664,71.8833146 41.3045589,71.8833146 L8.20382969,71.8833146 C5.99675973,71.8833146 5.11694995,70.3317733 6.23389605,68.4260797 L22.7278742,40.2846432 Z" id="Rectangle-3-Copy" fill="#FF971E" transform="translate(24.754397, 55.368653) rotate(3.000000) translate(-24.754397, -55.368653) "></path>
                            <path d="M100.168868,32.0606061 L100.168868,24.8646269 C100.168868,24.2325351 99.6611911,23.7272727 99.0349397,23.7272727 C98.4043221,23.7272727 97.9010111,24.2364835 97.9010111,24.8646269 L97.9010111,40.7717368 C97.9010111,41.2666495 98.2122433,41.6838092 98.6479365,41.8415665 C99.5623152,43.4959665 101.233229,44.6702952 103.192678,44.8987831 L103.192678,92.2869979 C103.192678,92.9228118 103.700355,93.4242424 104.326606,93.4242424 C104.957224,93.4242424 105.460535,92.9150807 105.460535,92.2869979 L105.460535,44.8984781 C107.412731,44.6692254 109.084124,43.4950402 110.000868,41.8433444 C110.440746,41.6863944 110.752202,41.2658642 110.752202,40.7717368 L110.752202,24.8646269 C110.752202,24.2325351 110.244524,23.7272727 109.618273,23.7272727 C108.987655,23.7272727 108.484344,24.2364835 108.484344,24.8646269 L108.484344,32.0606061 L105.460535,32.0606061 L105.460535,24.8645173 C105.460535,24.2287033 104.952858,23.7272727 104.326606,23.7272727 C103.695989,23.7272727 103.192678,24.2364345 103.192678,24.8645173 L103.192678,32.0606061 L100.168868,32.0606061 Z" id="Combined-Shape" fill="#FFFFFF"></path>
                            <rect id="Rectangle-30" fill="#A4A4A4" x="101.680773" y="53.2727273" width="5.29166667" height="40.1515152" rx="2.64583333"></rect>
                        </g>
                    </g>
                </g>
            </g>
        </g>
    </g>
</svg>