<?xml version="1.0" encoding="UTF-8"?>
<svg width="40px" height="51px" viewBox="0 0 40 51" version="1.1" xmlns="http://www.w3.org/2000/svg" xmlns:xlink="http://www.w3.org/1999/xlink">
    <!-- Generator: Sketch 42 (36781) - http://www.bohemiancoding.com/sketch -->
    <title>Group 7</title>
    <desc>Created with Sketch.</desc>
    <defs></defs>
    <g id="Page-3" stroke="none" stroke-width="1" fill="none" fill-rule="evenodd">
        <g id="call-for-sponsors" transform="translate(-206.000000, -2379.000000)">
            <g id="what-else" transform="translate(0.000000, 2083.000000)">
                <g id="Group-7" transform="translate(206.000000, 296.000000)">
                    <path d="M1.24918722,8.03862705 C0.984459097,6.23447999 2.2549251,4.77192982 4.06768784,4.77192982 L35.9568697,4.77192982 C37.7782128,4.77192982 39.0524363,6.23316925 38.8031998,8.03373305 L33.3573663,47.3761662 C33.108008,49.1776104 31.4329163,50.6570361 29.6037847,50.6807133 L10.8501645,50.9234705 C9.02647693,50.9470773 7.33403201,49.5074158 7.0687534,47.6995171 L1.24918722,8.03862705 Z" id="Mask" fill="#5C5B5B"></path>
                    <polygon id="Rectangle-14" fill="#FFF029" points="0.606060606 14.9122807 39.3939394 14.9122807 35.7410537 39.9649123 4.07958449 39.9649123"></polygon>
                    <ellipse id="Oval-15" fill="#FFFFFF" cx="20" cy="27.0350877" rx="5.75757576" ry="5.66666667"></ellipse>
                    <path d="M37.1064866,2.98245614 L37.1064866,0.590990368 C37.1064866,0.269002739 36.8365948,0 36.5036664,0 L3.80736002,0 C3.47743163,0 3.20453982,0.2645954 3.20453982,0.590990368 L3.20453982,2.98245614 L1.63202268,2.98245614 C1.14300037,2.98245614 0.682315689,3.38430901 0.615611884,3.88001964 L0.2150474,6.85682247 C0.149016295,7.34753391 0.500042314,7.75438596 1.00058847,7.75438596 L38.9994109,7.75438596 C39.5117019,7.75438596 39.8516558,7.3525331 39.784952,6.85682247 L39.3843875,3.88001964 C39.3183564,3.38930819 38.8626211,2.98245614 38.3679767,2.98245614 L37.1064866,2.98245614 Z" id="Combined-Shape" fill="#D8D8D8"></path>
                </g>
            </g>
        </g>
    </g>
</svg>