<?xml version="1.0" encoding="UTF-8"?>
<svg width="46px" height="60px" viewBox="0 0 46 60" version="1.1" xmlns="http://www.w3.org/2000/svg" xmlns:xlink="http://www.w3.org/1999/xlink">
    <!-- Generator: Sketch 42 (36781) - http://www.bohemiancoding.com/sketch -->
    <title>Group 5</title>
    <desc>Created with Sketch.</desc>
    <defs></defs>
    <g id="Page-3" stroke="none" stroke-width="1" fill="none" fill-rule="evenodd">
        <g id="call-for-sponsors" transform="translate(-202.000000, -2255.000000)">
            <g id="what-else" transform="translate(0.000000, 2083.000000)">
                <g id="Group-5" transform="translate(202.000000, 172.000000)">
                    <path d="M22.0382604,59.8855119 C32.9703825,59.8855119 42.8713068,58.1119889 42.8713068,55.9242374 C42.8713068,53.7364859 32.9703825,51.962963 22.0382604,51.962963 C11.1061384,51.962963 2.24390244,53.7364859 2.24390244,55.9242374 C2.24390244,58.1119889 11.1061384,59.8855119 22.0382604,59.8855119 Z" id="Oval-13" fill="#FF971E"></path>
                    <path d="M42.4049386,34.4587912 L45.4290683,34.4587912 C45.4290683,34.4587912 45.4342393,26.7779761 45.2123341,21.5175681 C44.990429,16.2571601 44.555608,13.8344309 44.555608,13.8344309 C44.555608,13.8344309 41.9011587,1.10318305 29.4378594,0.16717922 C16.9745601,-0.768824614 8.88109911,2.28651529 4.88275324,7.80317175 C0.884407373,13.3198282 -0.401500091,18.7157217 0.104816912,25.3312126 C0.611133915,31.9467034 3.72220246,38.3777014 7.6897863,42.8719462 C8.95503516,44.3051454 14.4533668,48.9125843 15.0761432,49.5106467 C15.6989195,50.1087092 15.0761432,55.4512429 15.0761432,55.4512429 L29.4378594,55.9147117 L29.4378594,50.8618867 C29.4378594,50.8618867 29.0178011,49.5106467 31.5946481,49.2910602 C33.5500921,49.1244266 36.5140996,48.3288243 38.4609575,46.8759827 C41.3495377,44.7203815 41.9687676,41.9897259 42.4049386,39.5025499 C42.8411097,37.015374 42.4049386,34.4587912 42.4049386,34.4587912 Z" id="Path-18" fill="#4921CC"></path>
                </g>
            </g>
        </g>
    </g>
</svg>