<?xml version="1.0" encoding="UTF-8"?>
<svg width="51px" height="63px" viewBox="0 0 51 63" version="1.1" xmlns="http://www.w3.org/2000/svg" xmlns:xlink="http://www.w3.org/1999/xlink">
    <!-- Generator: Sketch 42 (36781) - http://www.bohemiancoding.com/sketch -->
    <title>Group 6</title>
    <desc>Created with Sketch.</desc>
    <defs>
        <path d="M0.368678717,3.95218714 C0.0531622523,1.76945446 1.58676558,0 3.80012242,0 L35.6377861,0 C37.8484366,0 39.398794,1.77268692 39.0998405,3.96502316 L33.6082886,44.2366006 C33.3096779,46.4264224 31.2837872,48.225063 29.0660982,48.2542033 L10.8163568,48.4940039 C8.60638501,48.5230428 6.55886337,46.7756842 6.24355576,44.5943963 L0.368678717,3.95218714 Z" id="path-1"></path>
    </defs>
    <g id="Page-3" stroke="none" stroke-width="1" fill="none" fill-rule="evenodd">
        <g id="call-for-sponsors" transform="translate(-195.000000, -2490.000000)">
            <g id="what-else" transform="translate(0.000000, 2083.000000)">
                <g id="Group-6" transform="translate(195.000000, 407.000000)">
                    <g id="Combined-Shape" transform="translate(11.673203, 2.820896)">
                        <mask id="mask-2" fill="white">
                            <use xlink:href="#path-1"></use>
                        </mask>
                        <use id="Mask" fill="#FF971E" xlink:href="#path-1"></use>
                        <path d="M4.50326797,11.9633146 C4.50326797,11.9633146 9.12030229,11.4536802 12.391442,10.9749605 C15.6625817,10.4962408 14.1705474,45.9016017 14.1705474,45.9016017 C14.1705474,45.9016017 10.0645425,46.6533508 9.10988562,45.8192643 C8.15522876,44.9851779 4.50326797,11.9633146 4.50326797,11.9633146 Z M16.9488389,11.0886984 C18.2428932,10.3630305 23.1029088,10.2007175 26.4074813,10.2972981 C29.7120538,10.3938787 22.8497738,45.4404575 22.8497738,45.4404575 C22.8497738,45.4404575 17.7496396,46.4267062 16.9543237,45.439517 C16.1590078,44.4523279 15.6547846,11.8143663 16.9488389,11.0886984 Z M29.9045098,10.6936904 C29.9045098,10.6936904 34.65644,9.36317051 37.9610125,9.45975111 C41.2655851,9.5563317 33.5315998,45.7950841 33.5315998,45.7950841 C33.5315998,45.7950841 26.3297704,46.0830289 25.5344545,45.0958397 C24.7391386,44.1086505 29.9045098,10.6936904 29.9045098,10.6936904 Z" fill="#EF860C" mask="url(#mask-2)"></path>
                    </g>
                    <path d="M40.1473652,1.57848939 C44.547103,1.81391099 48.6800082,-1.24775969 49.5330882,2.99414062 C49.6269289,3.46075899 45.7408163,2.75059976 44.0027574,2.99414062 C38.4924753,3.76625416 19.1172435,1.16716691 13.7120098,6.63351213 C8.3067761,12.0998573 17.9568015,44.392715 18.8651961,47.7922509 C19.7735907,51.1917868 22.8936887,51.1917868 22.8936887,51.1917868 C22.8936887,51.1917868 31.8389889,50.4483289 34.9082031,51.1917868 C37.9774174,51.9352447 34.9389818,53.8340009 33.5195312,54.6674805 C32.1000807,55.50096 27.9361278,54.6457967 25.0371999,55.9897461 C23.1130212,56.8817996 21.268048,59.965874 19.3842773,61.0317383 C17.5706699,62.0579032 16.0573179,62.5109851 14.1338848,62.8921843 C12.8912182,63.1384645 11.6128606,62.9283184 10.3777574,62.6087868 C9.33224445,62.3383038 7.5047791,60.3483199 6.58789062,59.5537109 C5.3733539,58.5011492 1.97973658,57.588139 1.06689453,55.9897461 C-2.08447266,50.4716797 9.87875449,56.6060819 10.8679534,49.122803 C12.2530241,38.6447585 10.8143251,17.6178065 10.5606618,7.17613319 C10.5606618,7.17613319 9.38053767,2.4264827 13.3884804,1.17649013 C21.5578908,-1.37137622 32.6344975,1.17649013 40.1473652,1.57848939 Z" id="Path-19" fill="#FFF029"></path>
                </g>
            </g>
        </g>
    </g>
</svg>