<?xml version="1.0" encoding="UTF-8"?>
<svg width="139px" height="97px" viewBox="0 0 139 97" version="1.1" xmlns="http://www.w3.org/2000/svg" xmlns:xlink="http://www.w3.org/1999/xlink">
    <!-- Generator: Sketch 42 (36781) - http://www.bohemiancoding.com/sketch -->
    <title>ticket</title>
    <desc>Created with Sketch.</desc>
    <defs></defs>
    <g id="Page-3" stroke="none" stroke-width="1" fill="none" fill-rule="evenodd">
        <g id="call-for-speakers" transform="translate(-793.000000, -1631.000000)">
            <g id="perks" transform="translate(191.000000, 1500.000000)">
                <g id="icons" transform="translate(1.000000, 123.000000)">
                    <g id="ticket" transform="translate(601.000000, 8.000000)">
                        <g>
                            <rect id="Rectangle-32" fill="#FF971E" x="59.9607843" y="0" width="79.0392157" height="97" rx="4"></rect>
                            <g id="Group-9" transform="translate(60.164646, 55.455455) rotate(-15.000000) translate(-60.164646, -55.455455) translate(5.664646, 26.455455)">
                                <path d="M68.1490036,57.1121495 L4.00830006,57.1121495 C1.79457706,57.1121495 -5.00932629e-13,55.3244512 -5.00932629e-13,53.1188336 L-5.00932629e-13,3.9933159 C-5.00932629e-13,1.78786843 1.78627034,2.22399876e-12 4.00830006,2.22399876e-12 L68.1490036,2.22399876e-12 C68.3852187,4.54565784 72.15373,8.1588785 76.7679739,8.1588785 C81.3822177,8.1588785 85.1507291,4.54565784 85.3869441,2.24670282e-12 L104.102811,2.22399876e-12 C106.316534,2.22399876e-12 108.111111,1.78769829 108.111111,3.9933159 L108.111111,53.1188336 C108.111111,55.3242811 106.324841,57.1121495 104.102811,57.1121495 L85.3869441,57.1121495 C85.1507291,52.5664917 81.3822177,48.953271 76.7679739,48.953271 C72.15373,48.953271 68.3852187,52.5664917 68.1490036,57.1121495 Z" id="Combined-Shape" fill="#FFFFFF"></path>
                                <polyline id="Line" stroke="#4921CC" stroke-width="3" stroke-linecap="round" stroke-dasharray="1,7" points="76.9574425 12.6752881 76.9574425 33.2991199 76.9574425 51.6671363"></polyline>
                                <path d="M39.0140106,14.2154075 C36.8410324,11.6204952 33.5117907,9.97196262 30.0429999,9.97196262 C23.8928737,9.97196262 19.0784314,14.8870319 19.0784314,21.1657022 C19.0784314,28.848678 25.8565283,35.1273483 36.1233516,44.642027 L36.8083974,45.2762778 C38.0265239,46.4040822 39.9926558,46.412268 41.2196237,45.2762778 L41.9046695,44.642027 C52.1714928,35.1273483 58.9495898,28.848678 58.9495898,21.1657022 C58.9495898,14.8870319 54.1351474,9.97196262 47.9850212,9.97196262 C44.5162304,9.97196262 41.1869887,11.6204952 39.0140106,14.2154075 Z" id="Shape" fill="#FF971E" style="mix-blend-mode: darken;"></path>
                                <path d="M24.0238145,21.3106923 C22.3954801,19.366179 19.9006927,18.1308411 17.3013333,18.1308411 C12.6926989,18.1308411 9.08496732,21.8139781 9.08496732,26.5189378 C9.08496732,32.2762223 14.1641754,36.981182 21.8576816,44.1110641 L21.8576816,44.1110641 C23.0540038,45.2186809 25.0054756,45.2077092 26.1899473,44.1110641 L26.1899473,44.1110641 C33.8834536,36.981182 38.9626616,32.2762223 38.9626616,26.5189378 C38.9626616,21.8139781 35.3549301,18.1308411 30.7462957,18.1308411 C28.1469363,18.1308411 25.6521488,19.366179 24.0238145,21.3106923 Z" id="Shape" fill="#FFF029"></path>
                            </g>
                        </g>
                    </g>
                </g>
            </g>
        </g>
    </g>
</svg>