<?xml version="1.0" encoding="UTF-8"?>
<svg width="121px" height="100px" viewBox="0 0 121 100" version="1.1" xmlns="http://www.w3.org/2000/svg" xmlns:xlink="http://www.w3.org/1999/xlink">
    <!-- Generator: Sketch 42 (36781) - http://www.bohemiancoding.com/sketch -->
    <title>travel</title>
    <desc>Created with Sketch.</desc>
    <defs></defs>
    <g id="Page-3" stroke="none" stroke-width="1" fill="none" fill-rule="evenodd">
        <g id="call-for-speakers" transform="translate(-202.000000, -1625.000000)">
            <g id="perks" transform="translate(191.000000, 1500.000000)">
                <g id="icons" transform="translate(1.000000, 123.000000)">
                    <g id="flight" transform="translate(0.000000, 2.000000)">
                        <g id="travel" transform="translate(10.000000, 0.000000)">
                            <rect id="Rectangle-11" fill="#FF971E" x="0" y="11.3043478" width="121" height="86.9565217" rx="6"></rect>
                            <rect id="Rectangle-12" fill="#EF860C" x="8.70503597" y="9.56521739" width="10.4460432" height="90.4347826" rx="2"></rect>
                            <rect id="Rectangle-12-Copy" fill="#EF860C" x="101.848921" y="9.56521739" width="10.4460432" height="90.4347826" rx="2"></rect>
                            <path d="M34.8201439,4.99115737 C34.8201439,2.23461727 37.0600315,0 39.8147964,0 L81.1852036,0 C83.943674,0 86.1798561,2.23337536 86.1798561,4.99115737 L86.1798561,11.3043478 L34.8201439,11.3043478 L34.8201439,4.99115737 Z M40.0431655,6.34092331 L40.0431655,10.4347826 L80.9568345,10.4347826 L80.9568345,6.34092331 C80.9568345,5.24597748 80.060935,4.34782609 78.955787,4.34782609 L42.044213,4.34782609 C40.9357552,4.34782609 40.0431655,5.24016611 40.0431655,6.34092331 Z" id="Combined-Shape" fill="#EF860C"></path>
                            <g id="Group-8" transform="translate(70.510791, 26.086957)">
                                <ellipse id="Oval-14" fill="#4921CC" cx="11.1921891" cy="11.1801242" rx="11.1921891" ry="11.1801242"></ellipse>
                                <ellipse id="Oval-14" fill="#FFFFFF" cx="17.4100719" cy="15.6521739" rx="9.57553957" ry="9.56521739"></ellipse>
                            </g>
                            <path d="M56.122957,77.3383166 L56.580342,78.9334076 L29.6798803,86.6469909 L25.2469962,71.1876866 L52.1474578,63.4741034 L52.517144,64.7633525 C51.993491,64.9635641 51.7011792,65.5344046 51.8584091,66.0827303 C52.0156389,66.631056 52.5660327,66.9602545 53.1162117,66.8525498 L53.5194424,68.2587822 C52.9964012,68.4593291 52.7045496,69.0298014 52.8616819,69.5777869 C53.0188142,70.1257723 53.5686227,70.4549025 54.1184604,70.3478064 L54.521741,71.7542128 C53.9993118,71.9550942 53.70792,72.5251983 53.8649547,73.0728434 C54.0219895,73.6204886 54.5712128,73.9495502 55.1207088,73.843062 L55.5240399,75.2496444 C55.0022225,75.4508596 54.7112905,76.0205953 54.8682276,76.5679 C55.0251647,77.1152047 55.573803,77.4441976 56.122957,77.3383166 Z" id="Combined-Shape" fill="#FFF029"></path>
                        </g>
                    </g>
                </g>
            </g>
        </g>
    </g>
</svg>